<?xml version="1.0" encoding="UTF-8" standalone="no"?>
<svg
   xmlns:dc="http://purl.org/dc/elements/1.1/"
   xmlns:cc="http://creativecommons.org/ns#"
   xmlns:rdf="http://www.w3.org/1999/02/22-rdf-syntax-ns#"
   xmlns:svg="http://www.w3.org/2000/svg"
   xmlns="http://www.w3.org/2000/svg"
   xmlns:sodipodi="http://sodipodi.sourceforge.net/DTD/sodipodi-0.dtd"
   xmlns:inkscape="http://www.inkscape.org/namespaces/inkscape"
   width="365"
   height="560"
   version="1.1"
   id="svg8"
   sodipodi:docname="marker-suitable.svg"
   inkscape:version="0.92.3 (2405546, 2018-03-11)">
  <metadata
     id="metadata14">
    <rdf:RDF>
      <cc:Work
         rdf:about="">
        <dc:format>image/svg+xml</dc:format>
        <dc:type
           rdf:resource="http://purl.org/dc/dcmitype/StillImage" />
        <dc:title></dc:title>
      </cc:Work>
    </rdf:RDF>
  </metadata>
  <defs
     id="defs12" />
  <sodipodi:namedview
     pagecolor="#ffffff"
     bordercolor="#666666"
     borderopacity="1"
     objecttolerance="10"
     gridtolerance="10"
     guidetolerance="10"
     inkscape:pageopacity="0"
     inkscape:pageshadow="2"
     inkscape:window-width="1366"
     inkscape:window-height="713"
     id="namedview10"
     showgrid="false"
     inkscape:zoom="0.56181087"
     inkscape:cx="225.30427"
     inkscape:cy="155.368"
     inkscape:window-x="0"
     inkscape:window-y="27"
     inkscape:window-maximized="1"
     inkscape:current-layer="g6" />
  <g
     id="g6">
    <title
       id="title2">Layer 1</title>
    <path
       inkscape:connector-curvature="0"
       style="fill:#0000ff;fill-opacity:1"
       d="m 184.08585,549.92006 c 0,0.1 0.19999,0.29999 0.19999,0.29999 0,0 175.2,-269 175.2,-357.39999 0,-130.100014 -88.80002,-186.700014 -175.39999,-186.900014 -86.599994,0.19999 -175.4000085,56.8 -175.4000085,186.900014 0,88.39999 175.3000185,357.39999 175.3000185,357.39999 0,0 0.1,-0.29999 0.1,-0.29999 z m -60.7,-364.50001 c 0,-33.6 27.2,-60.8 60.8,-60.8 33.59999,0 60.80001,27.2 60.80001,60.8 0,33.59999 -27.30001,60.8 -60.90001,60.8 -33.5,0 -60.7,-27.2 -60.7,-60.8 z"
       id="svg_2"
       sodipodi:insensitive="true" />
  </g>
</svg>
